M48
INCH
T01C0.0150
T02C0.1870
T03C0.0380
T04C0.0600
T05C0.0400
T06C0.0300
T07C0.0500
%
T01
X-024340Y-011570
X-017494Y-003805
X-019100Y-005900
T02
X-028996Y-002185
X-013996Y-002185
X-013996Y-017185
X-028996Y-017185
T03
X-026968Y-003000
X-025984Y-003000
X-025000Y-003000
T04
X-029200Y-011000
X-029200Y-012970
X-029200Y-006300
X-029200Y-008270
X-013800Y-010200
X-013800Y-008230
X-013800Y-014770
X-013800Y-012800
T05
X-016400Y-007900
X-016400Y-006900
X-016400Y-005900
X-017400Y-000700
X-017400Y-001700
X-017700Y-010700
X-018700Y-010700
X-019700Y-010700
X-015900Y-015600
X-015900Y-014600
X-015900Y-013600
T06
X-026400Y-009000
X-026400Y-010000
X-026400Y-011000
X-026400Y-012000
X-023400Y-012000
X-023400Y-011000
X-023400Y-010000
X-023400Y-009000
X-021100Y-007500
X-020100Y-007500
X-019100Y-007500
X-018100Y-007500
X-018100Y-004500
X-019100Y-004500
X-020100Y-004500
X-021100Y-004500
X-022100Y-016400
X-021100Y-016400
X-020100Y-016400
X-019100Y-016400
X-019100Y-013400
X-020100Y-013400
X-021100Y-013400
X-022100Y-013400
X-018000Y-011900
X-022000Y-011900
X-022500Y-009800
X-018500Y-009800
X-026500Y-007500
X-022500Y-007500
X-021700Y-003600
X-017700Y-003600
X-022500Y-008800
X-018500Y-008800
X-023100Y-017600
X-019100Y-017600
X-016900Y-016900
X-016900Y-012900
X-018000Y-016900
X-018000Y-012900
X-023800Y-000600
X-019800Y-000600
X-019800Y-001500
X-023800Y-001500
X-015900Y-004900
X-015900Y-000900
X-018500Y-002600
X-020500Y-002600
X-016600Y-011400
X-016600Y-009900
X-023500Y-006300
X-023500Y-004800
X-022300Y-004631
X-022300Y-006600
X-022100Y-002600
X-023600Y-002600
X-014400Y-005800
X-014400Y-004300
X-020800Y-010700
X-022300Y-010700
X-023400Y-014000
X-023400Y-015968
X-028400Y-004100
X-030368Y-004100
X-023900Y-013100
X-025868Y-013100
X-012400Y-006500
X-012400Y-002500
T07
X-026668Y-018300
X-025684Y-014362
X-024700Y-018300
M30
